<svg xmlns="http://www.w3.org/2000/svg" width="160" height="50" viewBox="0 0 160 50">
    <defs>
        <linearGradient id="a" x1="90.769%" x2="-38.331%" y1="4.84%" y2="71.968%">
            <stop offset="0%" stop-color="#00A0FF"/>
            <stop offset=".7%" stop-color="#00A1FF"/>
            <stop offset="26%" stop-color="#00BEFF"/>
            <stop offset="51.2%" stop-color="#00D2FF"/>
            <stop offset="76%" stop-color="#00DFFF"/>
            <stop offset="100%" stop-color="#00E3FF"/>
        </linearGradient>
        <linearGradient id="b" x1="107.724%" x2="-130.67%" y1="49.424%" y2="49.424%">
            <stop offset="0%" stop-color="#FFE000"/>
            <stop offset="40.9%" stop-color="#FFBD00"/>
            <stop offset="77.5%" stop-color="#FFA500"/>
            <stop offset="100%" stop-color="#FF9C00"/>
        </linearGradient>
        <linearGradient id="c" x1="86.389%" x2="-49.886%" y1="17.814%" y2="194.39%">
            <stop offset="0%" stop-color="#FF3A44"/>
            <stop offset="100%" stop-color="#C31162"/>
        </linearGradient>
        <linearGradient id="d" x1="-18.581%" x2="42.275%" y1="-54.528%" y2="24.692%">
            <stop offset="0%" stop-color="#32A071"/>
            <stop offset="6.9%" stop-color="#2DA771"/>
            <stop offset="47.6%" stop-color="#15CF74"/>
            <stop offset="80.1%" stop-color="#06E775"/>
            <stop offset="100%" stop-color="#00F076"/>
        </linearGradient>
    </defs>
    <g fill="none" fill-rule="evenodd">
        <path fill="#000" d="M154.074 49.97H5.926C2.607 49.97 0 47.222 0 43.724V6.246C0 2.748 2.607 0 5.926 0h148.148C157.393 0 160 2.748 160 6.246v37.478c0 3.498-2.607 6.246-5.926 6.246z"/>
        <path fill="#A6A6A6" fill-rule="nonzero" d="M154.074 1c2.726 0 4.978 2.373 4.978 5.246v37.478c0 2.873-2.252 5.247-4.978 5.247H5.926C3.2 48.97.948 46.597.948 43.724V6.246C.948 3.373 3.2 1 5.926 1h148.148zm0-1H5.926C2.607 0 0 2.873 0 6.246v37.478c0 3.498 2.607 6.246 5.926 6.246h148.148c3.319 0 5.926-2.748 5.926-6.246V6.246C160 2.873 157.393 0 154.074 0z"/>
        <path fill="#FFF" fill-rule="nonzero" d="M48.425 13.409v-1.333h3.956v.666c0 1.103-.295 1.989-.923 2.617-.792.792-1.713 1.173-2.866 1.173s-2.075-.381-2.867-1.173c-.792-.792-1.173-1.714-1.173-2.867 0-1.152.381-2.074 1.173-2.866.792-.792 1.714-1.173 2.867-1.173.526 0 1.051.131 1.573.392.586.293.94.56 1.189.932l.076.113-.853.853-.117-.145c-.455-.57-1.021-.812-1.868-.812-.772 0-1.437.272-1.869.812l-.012.014-.014.012c-.55.44-.812 1.11-.812 1.993s.263 1.554.812 1.994c.717.574 1.272.838 1.895.838.837 0 1.417-.237 2.005-.826.334-.333.532-.742.57-1.214h-2.742zm9.703 1.665v1.333h-4.706v-7.83h4.706v1.21h-3.373v2.039h3.123v1.208h-3.123v2.04h3.373zm4.122 1.333h-1.333v-6.62h-2.123v-1.21h5.58v1.21H62.25v6.62zm5.413-7.83h1.333v7.83h-1.333v-7.83zm5.414 7.83H71.91v-6.62h-2.124v-1.21h5.456v1.21h-2.124v6.453h-.042v.167zm11.986-1.048c-.792.792-1.714 1.173-2.867 1.173s-2.074-.381-2.866-1.173c-.792-.792-1.173-1.714-1.173-2.867 0-1.152.381-2.074 1.173-2.866.792-.792 1.713-1.173 2.866-1.173s2.075.381 2.867 1.173c.792.792 1.173 1.714 1.173 2.866 0 1.153-.381 2.075-1.173 2.867zm-4.747-.86c.5.5 1.215.825 1.88.825.772 0 1.437-.272 1.869-.812l.012-.014a2.844 2.844 0 0 0 .826-2.006c0-.883-.263-1.553-.812-1.993l-.014-.012c-.5-.501-1.215-.826-1.88-.826-.772 0-1.437.272-1.87.812l-.011.014a2.844 2.844 0 0 0-.826 2.005c0 .884.262 1.554.812 1.994l.014.012zm8.169 1.908h-1.209v-7.83h1.385l3.363 5.451v-5.45h1.333v7.83h-1.258l-3.614-5.713v5.712zM78.074 27.234c-2.998 0-5.372 2.248-5.372 5.371a5.332 5.332 0 0 0 5.372 5.372c2.998 0 5.372-2.248 5.372-5.372 0-3.248-2.374-5.371-5.372-5.371zm0 8.495c-1.624 0-2.998-1.375-2.998-3.249 0-1.873 1.374-3.248 2.998-3.248s2.998 1.25 2.998 3.248c0 1.874-1.374 3.249-2.998 3.249zm-11.618-8.495c-2.998 0-5.372 2.248-5.372 5.371a5.332 5.332 0 0 0 5.372 5.372c2.998 0 5.372-2.248 5.372-5.372 0-3.248-2.374-5.371-5.372-5.371zm0 8.495c-1.624 0-2.998-1.375-2.998-3.249 0-1.873 1.374-3.248 2.998-3.248s2.998 1.25 2.998 3.248c0 1.874-1.374 3.249-2.998 3.249zm-13.867-6.871v2.248h5.372c-.125 1.25-.625 2.249-1.25 2.874-.749.75-1.998 1.624-4.122 1.624-3.373 0-5.871-2.624-5.871-5.997 0-3.373 2.623-5.996 5.871-5.996 1.75 0 3.123.75 4.123 1.624l1.624-1.624c-1.374-1.25-3.123-2.249-5.622-2.249-4.497 0-8.37 3.748-8.37 8.245 0 4.498 3.873 8.245 8.37 8.245 2.499 0 4.248-.75 5.747-2.373 1.499-1.5 1.998-3.623 1.998-5.247 0-.5 0-1-.124-1.374h-7.746zm56.716 1.749c-.5-1.25-1.749-3.373-4.497-3.373-2.749 0-4.997 2.123-4.997 5.371 0 2.999 2.248 5.372 5.247 5.372 2.373 0 3.872-1.499 4.372-2.373l-1.749-1.25c-.625.875-1.374 1.5-2.623 1.5-1.25 0-2-.5-2.624-1.625l7.121-2.998-.25-.624zm-7.246 1.749c0-2 1.624-3.124 2.749-3.124.874 0 1.749.5 1.999 1.125l-4.748 1.999zm-5.871 5.121h2.374V21.862h-2.374v15.615zm-3.748-9.119c-.624-.625-1.624-1.25-2.873-1.25-2.623 0-5.122 2.374-5.122 5.372 0 2.999 2.374 5.247 5.122 5.247 1.25 0 2.249-.624 2.748-1.249h.125v.75c0 1.998-1.124 3.123-2.873 3.123-1.374 0-2.374-1-2.623-1.874l-2 .874c.625 1.375 2.124 3.123 4.748 3.123 2.748 0 4.997-1.624 4.997-5.496v-9.495H92.44v.875zm-2.748 7.37c-1.624 0-2.998-1.374-2.998-3.248 0-1.873 1.374-3.248 2.998-3.248s2.873 1.375 2.873 3.248c0 1.874-1.25 3.249-2.873 3.249zm30.482-13.866h-5.622v15.615h2.374v-5.871h3.248c2.623 0 5.121-1.874 5.121-4.872 0-2.998-2.498-4.872-5.121-4.872zm.124 7.495h-3.372v-5.371h3.372c1.75 0 2.749 1.499 2.749 2.623-.125 1.374-1.124 2.748-2.749 2.748zm14.367-2.248c-1.75 0-3.498.75-4.123 2.373l2.124.875c.5-.875 1.25-1.125 2.124-1.125 1.249 0 2.373.75 2.498 2v.124c-.374-.25-1.374-.624-2.373-.624-2.249 0-4.498 1.249-4.498 3.497 0 2.124 1.874 3.498 3.873 3.498 1.624 0 2.374-.75 2.998-1.499h.125v1.25h2.249V31.48c-.25-2.748-2.374-4.372-4.997-4.372zm-.25 8.62c-.75 0-1.874-.375-1.874-1.375 0-1.249 1.374-1.624 2.499-1.624.999 0 1.499.25 2.123.5-.25 1.5-1.499 2.499-2.748 2.499zm13.117-8.246l-2.623 6.746h-.125l-2.749-6.746h-2.498l4.122 9.495-2.373 5.247h2.373l6.372-14.742h-2.499zm-20.987 9.994h2.373V21.862h-2.373v15.615z"/>
        <path fill="url(#a)" d="M.5.625C.125.999 0 1.624 0 2.374v27.608c0 .75.25 1.374.625 1.749l.125.125 15.49-15.49v-.25L.5.624z" transform="translate(9.492 8.745)"/>
        <path fill="url(#b)" d="M21.237 21.612l-5.122-5.122v-.375l5.122-5.122.125.125 6.121 3.498c1.75 1 1.75 2.624 0 3.623l-6.246 3.373z" transform="translate(9.492 8.745)"/>
        <path fill="url(#c)" d="M21.362 21.487l-5.247-5.247L.5 31.856c.624.624 1.499.624 2.623.125l18.24-10.494" transform="translate(9.492 8.745)"/>
        <path fill="url(#d)" d="M21.362 10.993L3.123.625C2 0 1.124.125.5.75l15.615 15.49 5.247-5.247z" transform="translate(9.492 8.745)"/>
        <path fill="#000" d="M30.73 30.107L12.616 40.35c-1 .624-1.874.5-2.499 0l-.125.125.125.125c.625.5 1.5.624 2.499 0L30.73 30.107z" opacity=".2"/>
        <path fill="#000" fill-rule="nonzero" d="M9.992 40.35c-.375-.374-.5-.999-.5-1.748v.125c0 .75.25 1.374.625 1.749v-.125h-.125zM36.976 26.61l-6.246 3.498.125.125 6.121-3.498c.874-.5 1.25-1.124 1.25-1.749 0 .625-.5 1.124-1.25 1.624z" opacity=".12"/>
        <path fill="#FFF" d="M12.616 9.494l24.36 13.867c.75.5 1.25 1 1.25 1.624 0-.625-.376-1.25-1.25-1.749L12.616 9.369c-1.75-.999-3.124-.25-3.124 1.75v.124c0-1.874 1.375-2.748 3.124-1.749z" opacity=".25"/>
    </g>
</svg>
