<?xml version="1.0" encoding="iso-8859-1"?>
<!-- Generator: Adobe Illustrator 19.0.0, SVG Export Plug-In . SVG Version: 6.00 Build 0)  -->
<svg version="1.1" id="Capa_1" xmlns="http://www.w3.org/2000/svg" xmlns:xlink="http://www.w3.org/1999/xlink" x="0px" y="0px"
	 viewBox="0 0 416.001 416.001" style="enable-background:new 0 0 416.001 416.001;" xml:space="preserve">
<path style="fill:#00EFD1;" d="M276.67,173.26c-5.142-11.131-18.333-15.986-29.463-10.844
	c-11.131,5.142-15.986,18.333-10.844,29.463c5.142,11.131,18.333,15.986,29.463,10.844c6.804-3.143,11.563-9.508,12.654-16.923
	C279.109,181.533,278.48,177.175,276.67,173.26z M104.24,187.87c-5.105-11.147-18.28-16.046-29.427-10.941
	s-16.046,18.28-10.941,29.427s18.28,16.046,29.427,10.941c6.84-3.132,11.628-9.515,12.721-16.957
	C106.646,196.099,106.028,191.767,104.24,187.87z M145.55,145.6c3.371,11.784,15.656,18.605,27.441,15.234
	c11.784-3.371,18.605-15.656,15.234-27.441c-3.371-11.784-15.656-18.605-27.441-15.234c-8.384,2.398-14.586,9.483-15.854,18.111
	C144.473,139.389,144.684,142.569,145.55,145.6z M406.34,67.82v179.56c0,22.091-17.909,40-40,40H49.66c-22.091,0-40-17.909-40-40
	V67.82c0-22.091,17.909-40,40-40h316.68C388.432,27.82,406.34,45.729,406.34,67.82L406.34,67.82z M353.89,122.11
	c1.781-12.126-6.604-23.399-18.73-25.181c-12.126-1.781-23.399,6.604-25.181,18.73c-1.781,12.126,6.604,23.399,18.73,25.181
	c0,0,0.001,0,0.001,0C340.836,142.62,352.108,134.235,353.89,122.11z"/>
<path style="fill:#FEDB41;" d="M335.16,96.92c12.131,1.776,20.526,13.05,18.75,25.182c-1.776,12.131-13.05,20.526-25.182,18.75
	c-12.131-1.776-20.526-13.05-18.75-25.182c0-0.003,0.001-0.007,0.001-0.01c1.777-12.127,13.049-20.518,25.176-18.741
	C335.158,96.92,335.159,96.92,335.16,96.92z"/>
<path style="fill:#00ACEA;" d="M309.97,358.18v20c0,5.523-4.477,10-10,10H116.03c-5.523,0-10-4.477-10-10v-20
	c0-5.523,4.477-10,10-10h183.94C305.493,348.18,309.97,352.657,309.97,358.18z"/>
<path style="fill:#FEDB41;" d="M276.67,173.26c5.147,11.125,0.301,24.315-10.824,29.462c-11.125,5.147-24.315,0.3-29.462-10.824
	s-0.3-24.315,10.824-29.462c3.915-1.811,8.273-2.442,12.542-1.816C267.166,161.698,273.534,166.454,276.67,173.26z"/>
<path style="fill:#00ACEA;" d="M139,287.38h138v60.8H139V287.38z"/>
<g>
	<path style="fill:#FEDB41;" d="M170.12,117.54c12.126,1.785,20.509,13.063,18.724,25.189
		c-1.785,12.126-13.063,20.509-25.189,18.724c-12.124-1.785-20.506-13.058-18.724-25.183c1.78-12.125,13.052-20.512,25.178-18.732
		C170.112,117.539,170.116,117.54,170.12,117.54z"/>
	<path style="fill:#FEDB41;" d="M104.24,187.87c5.107,11.142,0.214,24.314-10.927,29.42c-11.142,5.107-24.314,0.214-29.42-10.927
		c-5.107-11.142-0.214-24.314,10.927-29.42c3.897-1.786,8.229-2.406,12.47-1.783C94.745,176.213,101.141,181.01,104.24,187.87z"/>
</g>
<g>
	<path style="fill:#083863;" d="M366.34,18H49.66C22.26,17.974,0.026,40.165,0,67.566c0,0.085,0,0.17,0,0.254v179.56
		c-0.098,27.306,21.959,49.522,49.265,49.62c0.132,0,0.263,0,0.395,0H129v41h-12.97c-11.082,0.093-20.019,9.098-20.03,20.18v20
		c0.044,10.99,8.989,19.864,19.979,19.82c0.017,0,0.034,0,0.051,0h183.94c10.99,0.072,19.958-8.779,20.03-19.769
		c0-0.017,0-0.034,0-0.051v-20c-0.011-11.082-8.948-20.087-20.03-20.18H287v-41h79.34c27.306,0.12,49.54-21.919,49.66-49.225
		c0.001-0.132,0.001-0.263,0-0.395V67.82c0.114-27.4-22.005-49.705-49.406-49.82C366.51,18,366.425,18,366.34,18z M300,378H116v-20
		h184V378z M267,338H149v-41h118V338z M397,248c0,16.569-13.431,30-30,30l0,0H50c-16.569,0-30-13.431-30-30l0,0V68
		c0-16.569,13.431-30,30-30h317c16.569,0,30,13.431,30,30V248z"/>
	<path style="fill:#083863;" d="M336.62,87h-0.008c-17.563-3-33.949,9.63-36.525,27.186c-1.074,7.155,0.313,14.462,3.935,20.725
		l-26.051,23.795c-4.726-4.138-10.552-6.815-16.771-7.706c-8.509-2-16.994,0.752-23.891,5.882c-2.833,2.083-5.303,4.621-7.309,7.509
		l-30.906-24.975c-0.056-15.936-11.754-29.436-27.519-31.761c-17.589-2.588-33.946,9.572-36.535,27.161
		c-0.001,0.005-0.002,0.01-0.002,0.016c-0.36,2.466-0.433,4.966-0.219,7.449l-29.744,30.435
		c-13.472-11.603-33.8-10.088-45.403,3.385c-11.603,13.472-10.088,33.8,3.385,45.403s33.8,10.088,45.403-3.385
		c6.526-7.577,9.16-17.756,7.129-27.547L143.7,161.8c6.08,6.333,14.481,9.909,23.26,9.9c6.903,0,13.621-2.236,19.147-6.373
		c2.258-1.68,4.288-3.648,6.037-5.853l32.331,26.091c1.631,17.701,17.303,30.728,35.004,29.097s30.728-17.303,29.097-35.004
		c-0.101-1.099-0.259-2.192-0.472-3.274l30.87-28.029c4.108,1.798,8.543,2.726,13.027,2.727
		c17.79-0.048,32.172-14.508,32.124-32.298c-0.019-6.892-2.247-13.597-6.359-19.128C352.763,92.704,345.112,88.124,336.62,87
		L336.62,87z M96.126,198.888c-1.005,6.645-7.206,11.218-13.851,10.213c-6.645-1.005-11.218-7.206-10.213-13.851
		c0.897-5.93,5.979-10.322,11.977-10.35c0.6,0,1.2,0.1,1.8,0.1c4.1,1,7.576,3.239,9.323,7.043
		C96.141,194.183,96.477,196.561,96.126,198.888z M178.956,141.268c-0.978,6.657-7.162,11.266-13.821,10.3
		c-4.753-0.707-8.655-4.126-9.979-8.746c-1.834-6.484,1.936-13.226,8.42-15.06c1.071-0.303,2.178-0.458,3.291-0.46
		c0.602,0,1.204,0.045,1.8,0.132c6.66,0.978,11.267,7.17,10.288,13.831c0,0.001,0,0.002,0,0.003H178.956z M268.586,184.348
		c-0.98,6.661-7.175,11.266-13.836,10.286c-6.661-0.98-11.266-7.175-10.286-13.836c0.879-5.974,5.998-10.404,12.036-10.416
		c0.602,0,1.204,0.044,1.8,0.132c6.657,0.973,11.264,7.158,10.291,13.815c-0.001,0.006-0.002,0.013-0.003,0.019H268.586z
		 M344,120.658c-0.983,6.662-7.181,11.266-13.843,10.283c-6.662-0.983-11.266-7.181-10.283-13.843
		c0.983-6.662,7.181-11.266,13.843-10.283c3.199,0.472,6.08,2.196,8.008,4.791C343.664,114.198,344.483,117.458,344,120.658z"/>
</g>
<g>
</g>
<g>
</g>
<g>
</g>
<g>
</g>
<g>
</g>
<g>
</g>
<g>
</g>
<g>
</g>
<g>
</g>
<g>
</g>
<g>
</g>
<g>
</g>
<g>
</g>
<g>
</g>
<g>
</g>
</svg>
