<svg xmlns="http://www.w3.org/2000/svg" id="Layer_1" x="0" y="0" viewBox="0 0 80 80" xml:space="preserve"><path fill="#EDEDED" d="M64.8 22.3c2.6 0 4.7 2.1 4.7 4.7v23.4h-9.4V27c0-2.6 2.1-4.7 4.7-4.7zm0 0"/><path fill="#EDEDED" d="M69.5 12.9c-2.6 0-4.7 2.1-4.7 4.7V41h9.4V17.6c-.1-2.6-2.2-4.7-4.7-4.7zm0 0"/><path fill="#EDEDED" d="M74.1 8.2c-.7 0-1.3.2-1.9.4l-2.1 43.9-3.8 17.7 11.6-20.4c.6-1.1.9-2.3.9-3.5V13c0-2.6-2.1-4.8-4.7-4.8zm0 0"/><path fill="#FFF" d="M74.1 12.9V47c0 .8-.1 1.6-.4 2.4l-7.4 20.9 2.3 8.6H42.4v-4.7l5.1-15.4 22-17.7V12.9c0-1.9 1.1-3.5 2.7-4.3 1.1.8 1.9 2.4 1.9 4.3zm0 0"/><path fill="#FFF" d="M61.5 37.7c1.8-1.8 4.8-1.8 6.6 0 .9.9 1.4 2.1 1.4 3.3 0 1.2-.5 2.4-1.4 3.3L51.7 60.7v4.1c0 5.2-4.2 9.4-9.4 9.4V60.7c0-2.6 1-4.9 2.7-6.6l16.5-16.4zm0 0"/><path fill="#EDEDED" d="M15.2 22.3c-2.6 0-4.7 2.1-4.7 4.7v23.4h9.4V27c0-2.6-2.1-4.7-4.7-4.7zm0 0"/><path fill="#EDEDED" d="M10.5 12.9c-2.6 0-4.7 2.1-4.7 4.7V41h9.4V17.6c0-2.6-2.1-4.7-4.7-4.7zm0 0M37.6 74.1v4.7H33L23.6 60l14 14.1zm0 0"/><path fill="#EDEDED" d="M34.9 54.1L18.5 37.7c-1-1-2.3-1.5-3.6-1.4l18 36.5c1.4.8 3 1.3 4.7 1.3V60.7c0-2.6-1-4.9-2.7-6.6zm0 0"/><path fill="#FFF" d="M31.8 59.5L10.5 41V13c0-2.6-2-4.7-4.6-4.8-2.6-.1-4.8 2.1-4.8 4.7v33.5c0 1.2.3 2.4.9 3.5l11.6 20.4-2.3 8.6H33v-6l-1.2-13.4zm0 0"/><path fill="#FFF" d="M33 60.7v12.2c-2.8-1.6-4.7-4.7-4.7-8.1v-4.1L11.9 44.3c-.9-.9-1.4-2.1-1.4-3.3 0-1.2.5-2.4 1.4-3.3.8-.8 1.9-1.3 3-1.4.9.1 1.8.5 2.5 1.4l13.3 16.4c1.4 1.7 2.3 4 2.3 6.6zm0 0"/><path fill="#5FCEA9" d="M48.4 1.2c-.4 0-.7 0-1.1.1L40 37.9l16.6-16.7c2.1-2.1 3.4-5.1 3.4-8.3.1-6.5-5.2-11.7-11.6-11.7zm0 0"/><path fill="#81E2C4" d="M55.4 12.9c0-6.1-3.6-11.1-8.1-11.7-2.8.3-5.4 1.5-7.3 3.5-2.1-2.2-5.1-3.5-8.4-3.5-6.5 0-11.7 5.3-11.7 11.7 0 3.2 1.3 6.2 3.4 8.3L40 37.9l12.8-16.7c1.6-2.1 2.6-5 2.6-8.3zm0 0"/><path d="M61.3 12.9C61.3 5.8 55.5 0 48.4 0c-3.1 0-6 1.1-8.4 3.1-2.3-2-5.3-3.1-8.4-3.1-7.1 0-12.9 5.8-12.9 12.9 0 3.4 1.3 6.7 3.8 9.1l16.6 16.7c.2.2.5.3.8.3.3 0 .6-.1.8-.3L57.5 22c2.4-2.4 3.8-5.6 3.8-9.1zM40 36.2L24.2 20.4c-2-2-3.1-4.7-3.1-7.5 0-5.8 4.7-10.6 10.5-10.6 2.9 0 5.5 1.1 7.5 3.2.2.2.5.4.8.4.3 0 .6-.1.8-.4 2-2 4.7-3.2 7.5-3.2C54 2.3 58.7 7 58.7 12.9c0 2.8-1.1 5.5-3.1 7.5L40 36.2zm0 0M19.4 36.9c-.9-.9-1.9-1.4-3-1.6V23.6c1.4.5 2.3 1.8 2.3 3.3v6c0 .6.5 1.2 1.2 1.2.6 0 1.2-.5 1.2-1.2v-6c0-2.8-2-5.2-4.7-5.7v-3.6c0-2.9-2.1-5.3-4.8-5.8C11.1 9.2 8.8 7.1 6 7c-1.6 0-3.1.6-4.2 1.7C.6 9.8 0 11.3 0 12.9v33.5c0 1.4.4 2.8 1.1 4l11.3 20-2.2 8.1c-.1.4 0 .7.2 1 .2.3.6.5.9.5h26.3c.6 0 1.2-.5 1.2-1.2V60.7c0-2.8-1.1-5.5-3.1-7.5L19.4 36.9zm-5.3-19.3v17.7c-.8.2-1.6.5-2.3 1v-22c1.3.4 2.3 1.8 2.3 3.3zm22.4 60.1H12.9l1.9-7.1c.1-.3 0-.6-.1-.9L3.1 49.2c-.5-.9-.8-1.9-.8-2.9V12.9c0-1 .4-1.9 1.1-2.5.7-.7 1.6-1 2.6-1 1.8 0 3.4 1.6 3.4 3.6V41.2c0 1.5.6 2.9 1.7 4l16.3 16.3c.5.5 1.2.5 1.7 0s.5-1.2 0-1.7L12.7 43.5c-.7-.7-1-1.5-1-2.5s.4-1.8 1.1-2.5c1.4-1.3 3.6-1.2 5 .1l16.3 16.3c1.5 1.5 2.4 3.6 2.4 5.8v17zm0 0M78.2 8.7C77.1 7.6 75.6 7 74 7c-2.7.1-5 2.1-5.6 4.8-2.7.5-4.8 2.9-4.8 5.8v3.6c-2.7.5-4.7 2.9-4.7 5.7v6c0 .6.5 1.2 1.2 1.2.6 0 1.2-.5 1.2-1.2v-6c0-1.5 1-2.8 2.3-3.3v11.7c-1.1.2-2.2.8-3 1.6L44.3 53.2c-2 2-3.1 4.6-3.1 7.5v18.1c0 .6.5 1.2 1.2 1.2h26.3c.4 0 .7-.2.9-.5.2-.3.3-.7.2-1l-2.2-8.1 11.3-20c.7-1.2 1.1-2.6 1.1-4V12.9c0-1.6-.6-3.1-1.8-4.2zm-12.3 8.9c0-1.5 1-2.8 2.3-3.3v22.1c-.7-.5-1.5-.9-2.3-1V17.6zm11.8 28.7c0 1-.3 2-.8 2.9L65.3 69.7c-.2.3-.2.6-.1.9l1.9 7.1H43.5v-17c0-2.2.9-4.3 2.4-5.8l16.3-16.3c1.4-1.4 3.6-1.4 5-.1.7.7 1.1 1.5 1.1 2.5 0 .9-.4 1.8-1 2.5L50.9 59.8c-.5.5-.5 1.2 0 1.7s1.2.5 1.7 0l16.3-16.3c1.1-1.1 1.7-2.5 1.7-4V13c0-1.9 1.5-3.6 3.4-3.6 1 0 1.9.3 2.6 1 .7.7 1.1 1.6 1.1 2.5v33.4zm0 0"/></svg>