<svg xmlns="http://www.w3.org/2000/svg" xmlns:xlink="http://www.w3.org/1999/xlink" id="Layer_1" x="0" y="0" viewBox="0 0 63.4 80" xml:space="preserve"><path fill="#8EA1E4" d="M56.7 53.5c-15.7-7.9-34.2-7.9-49.8 0-3.4 1.7-5.5 5.2-5.5 9v14.7c0 .9.7 1.6 1.6 1.6h57.8c.9 0 1.6-.7 1.6-1.6V62.5c-.2-3.8-2.3-7.3-5.7-9zm0 0"/><path fill="#7C94D6" d="M56.7 53.5c-1.3-.7-2.7-1.3-4.1-1.9v8.8c1.4 1.8 2.3 4 2.3 6.3v12h5.8c.9 0 1.6-.7 1.6-1.6V62.5c-.1-3.8-2.2-7.3-5.6-9zm0 0"/><path fill="#FFF" d="M31.8 52.1l6.6-5.7V36.3H25.2v10.1l6.6 5.7zm0 0M17.9 17.8h-2.4c-2 0-3.7 1.6-3.7 3.7v1.7c0 2 1.6 3.7 3.7 3.7h2.4v-9.1zm0 0M45.6 17.8H48c2 0 3.7 1.6 3.7 3.7v1.7c0 2-1.6 3.7-3.7 3.7h-2.4v-9.1zm0 0"/><path fill="#FFF" d="M31.8 1.6c-8.5 0-15.4 6.9-15.4 15.5v12.2c0 9.5 10.8 14.2 15.4 14.3 4.6-.1 15.4-4.7 15.4-14.3V17.1c0-8.6-6.9-15.5-15.4-15.5zm0 0"/><path fill="#EDEDED" d="M39.4 3.7v25.6c0 7.4-6.5 11.8-11.5 13.5 1.5.5 2.8.7 3.9.8 4.6-.1 15.4-4.7 15.4-14.3V17.1c0-5.8-3.1-10.8-7.8-13.4zm0 0"/><path fill="#81E2C4" d="M52.6 51.7c-2.6-1-5.2-1.9-7.8-2.5l-12.1 17c-.6.8-1.8.8-2.4 0l-11.6-17c-2.6.6-5.2 1.5-7.7 2.5v27.2h41.7V51.7zm0 0"/><defs><path id="SVGID_1_" d="M0 0h63.4v80H0z"/></defs><clipPath id="SVGID_2_"><use xlink:href="#SVGID_1_"/></clipPath><path clip-path="url(#SVGID_2_)" fill="#5FCEA9" d="M52.6 51.7c-.3-.1-.6-.3-1-.4-1.3-.5-2.6-.9-3.9-1.3-1-.3-2-.6-2.9-.8L41 54.4c2.8.9 5.6 2 8.3 3.4 1.3.6 2.4 1.5 3.3 2.6v-8.7zm0 0"/><path clip-path="url(#SVGID_2_)" fill="#FFF" d="M46.6 4.2C40.7-.6 33.9 1.8 33.9 1.8c10.7 2.9 13.3 16 13.3 16s2.6.2 3.6-2.2c1-2.7-.5-8.4-4.2-11.4zm0 0M16.9 4.2c5.9-4.8 12.7-2.4 12.7-2.4-10.7 2.9-13.3 16-13.3 16s-2.6.2-3.6-2.2c-.9-2.7.5-8.4 4.2-11.4zm0 0"/><path fill="#EDEDED" d="M31.8 43.5c-.2 0-.5 0-.8-.1v4.7c0 1.3.5 2.5 1.4 3.4l5.9-5.1v-4.7c-2.4 1.2-4.9 1.8-6.5 1.8zm0 0"/><path fill="#B2B9BF" d="M39.6 56.5l5.2-7.3-3.8-3c-.8-.6-1.8-.5-2.5.1l-6.7 5.8 6.9 4.2c.3.2.6.2.9.2zm0 0"/><path fill="#A0A9AF" d="M41 54.4l3.8-5.3-3.8-3c-.8-.6-1.8-.5-2.5.1l-6.1 5.3c.7.7 1.5 1.1 2.5 1.3 2.1.5 4.1 1 6.1 1.6zm0 0"/><path fill="#B2B9BF" d="M24.8 56.3l6.9-4.2-6.7-5.8c-.7-.6-1.8-.7-2.5-.1l-3.8 3 4.9 7.2c.3.1.8.2 1.2-.1zm0 0"/><path d="M31.5 23.7c-.6 0-1.2.5-1.2 1.2v3.4c0 .9.8 1.7 1.7 1.7h1.1c.6 0 1.2-.5 1.2-1.2 0-.6-.5-1.2-1.2-1.2h-.5v-2.8c0-.6-.5-1.1-1.1-1.1zm0 0M26 32.8c-.5.3-.7 1.1-.4 1.6 1.2 1.9 3.5 3 6.1 3 2.6 0 4.9-1.2 6.1-3 .3-.5.2-1.3-.4-1.6-.5-.3-1.3-.2-1.6.4-.8 1.2-2.4 2-4.2 2-1.8 0-3.4-.8-4.2-2-.1-.5-.9-.7-1.4-.4zm0 0M38.5 23.2c0 .6.5 1.2 1.2 1.2.6 0 1.2-.5 1.2-1.2v-1.6c0-.6-.5-1.2-1.2-1.2-.6 0-1.2.5-1.2 1.2v1.6zm0 0M23.9 20.5c-.6 0-1.2.5-1.2 1.2v1.6c0 .6.5 1.2 1.2 1.2.6 0 1.2-.5 1.2-1.2v-1.6c0-.7-.6-1.2-1.2-1.2zm0 0M37.8 10.3H25.7c-.6 0-1.2.5-1.2 1.2s.5 1.2 1.2 1.2h12.1c.6 0 1.2-.5 1.2-1.2s-.5-1.2-1.2-1.2zm0 0"/><g><path d="M36.3 15.7c0-.6-.5-1.2-1.2-1.2h-6.8c-.6 0-1.2.5-1.2 1.2 0 .6.5 1.2 1.2 1.2h6.8c.7 0 1.2-.6 1.2-1.2zm0 0"/><path d="M57.2 52.5c-1.3-.7-9.3-3.8-11.9-4.4l-3.6-2.8c-.7-.5-1.5-.7-2.2-.6v-2.2c.8-.4 1.6-.9 2.4-1.5 2.9-2.1 6.4-5.9 6.4-11.6v-1.2c2.5-.2 4.5-2.3 4.5-4.8v-1.7c0-1.6-.8-3-2-3.9.4-.4.7-.9 1-1.6.6-1.6.5-4-.3-6.4-.8-2.6-2.3-4.8-4.2-6.3C41.6-1.2 35.1.4 33.7.8c-.7-.1-1.4-.1-2-.1-.7 0-1.4 0-2 .1-1.4-.4-7.9-2-13.6 2.7-1.9 1.5-3.3 3.8-4.2 6.3-.8 2.4-.9 4.8-.3 6.4.2.6.6 1.2 1 1.6-1.2.9-2 2.3-2 3.9v1.7c0 2.6 2 4.7 4.5 4.8v1.2c0 5.8 3.5 9.5 6.4 11.6.8.6 1.6 1.1 2.4 1.5v2.2c-.8-.1-1.6.1-2.2.6l-3.6 2.8c-2.6.7-10.5 3.7-11.8 4.4C2.5 54.4.1 58.3.1 62.6v14.7c0 1.5 1.2 2.7 2.7 2.7h57.8c1.5 0 2.7-1.2 2.7-2.7V62.5c.1-4.2-2.3-8.1-6.1-10zm-16.9-5.4l2.9 2.3-4.1 5.8-5.3-3.2 5.5-4.8c.3-.3.7-.3 1-.1zm-2.6 10l-6 8.4c-.1.1-.2.1-.2.1-.1 0-.2 0-.2-.1l-5.6-8.3 6.2-3.7 5.8 3.6zM26.4 45.9v-2.4c2 .8 4 1.2 5.4 1.2 1.4 0 3.3-.4 5.4-1.2v2.4l-5.4 4.7-5.4-4.7zm24.1-22.7c0 1.3-.9 2.3-2.2 2.5V19c1.2.2 2.1 1.2 2.1 2.5v1.7zM45.9 5.1c3.3 2.7 4.6 7.9 3.7 10.1-.3.9-1 1.2-1.6 1.4-.4-1.3-1.1-3.7-2.5-6.2-1.9-3.5-4.4-6.2-7.4-8 2.3 0 5.2.5 7.8 2.7zM13 23.2v-1.7c0-1.3.9-2.3 2.1-2.5v6.7c-1.1-.2-2.1-1.2-2.1-2.5zm.9-8c-.8-2.2.4-7.4 3.7-10.1 2.6-2.2 5.5-2.7 7.7-2.8-2.9 1.7-5.4 4.4-7.4 8-1.4 2.6-2.2 4.9-2.5 6.2-.5-.1-1.2-.4-1.5-1.3zm3.6 14.1V18c.3-1.2 3-12.4 12.3-15 .6-.1 1.3-.1 1.9-.1.6 0 1.3 0 1.9.1 9.2 2.6 12 13.8 12.3 15v11.3c0 8.9-10.3 13-14.2 13.1-3.9-.1-14.2-4.3-14.2-13.1zm5.7 17.8c.3-.2.8-.2 1.1 0l5.5 4.8-5.5 3.3-4-5.9 2.9-2.2zM61 77.3c0 .2-.2.4-.4.4h-6.9v-3.6c0-.6-.5-1.2-1.2-1.2-.6 0-1.2.5-1.2 1.2v3.6H12.1v-15c0-.6-.5-1.2-1.2-1.2-.6 0-1.2.5-1.2 1.2v15H2.9c-.2 0-.4-.2-.4-.4V62.5c0-3.4 1.9-6.5 4.9-8 .8-.4 1.6-.8 2.4-1.1v3.7c0 .6.5 1.2 1.2 1.2.6 0 1.2-.5 1.2-1.2v-4.7c2-.8 4-1.4 6.1-2l11.2 16.3c.5.7 1.3 1.1 2.1 1.1s1.6-.4 2.1-1.1l11.7-16.4c2.1.5 4.1 1.2 6.1 2v16.2c0 .6.5 1.2 1.2 1.2.6 0 1.2-.5 1.2-1.2V53.4c.8.4 1.6.7 2.4 1.1 3 1.5 4.9 4.6 4.9 8L61 77.3zm0 0"/></g></svg>