<svg xmlns="http://www.w3.org/2000/svg" id="Layer_1" x="0" y="0" viewBox="0 0 80 80" xml:space="preserve"><path fill="#8EA1E4" d="M40 11.1C24 11.1 11.1 24 11.1 40S24 68.9 40 68.9 68.9 56 68.9 40 56 11.1 40 11.1zm0 48.4c-10.8 0-19.5-8.7-19.5-19.5S29.2 20.5 40 20.5 59.5 29.2 59.5 40 50.8 59.5 40 59.5zm0 0"/><path fill="#81E2C4" d="M19 20.6H6.3C3.1 26.3 1.2 32.9 1.2 40c0 7.1 1.9 13.7 5.2 19.4h12.7v-7.3c-2.1-3.6-3.2-7.7-3.2-12.1 0-4.4 1.2-8.5 3.2-12.1v-7.3zm0 0"/><path fill="#BE437C" d="M40.4 78.8L58.7 61l.7 12.7c-5.6 3.2-12 5-19 5.1zm0 0"/><path fill="#81E2C4" d="M58.7 72.5V61h-6.6c-3.6 2.1-7.7 3.2-12.1 3.2S31.5 63 27.9 61h-7.3v12.7c5.7 3.3 12.3 5.2 19.4 5.2h.4c6.8-.2 13.1-2.5 18.3-6.4zm0 0"/><path fill="#EDEDED" d="M59.4 73.6l-.7-1.2 11.7-20.3 3.2 7.3c-3.4 5.9-8.3 10.8-14.2 14.2zm0 0"/><path fill="#FFF" d="M70.4 57.6v-5.5H61c-2.1 3.7-5.2 6.7-8.9 8.9l6.6 11.5c5-3.7 9-8.9 11.7-14.9zm0 0"/><path fill="#BE437C" d="M40.4 1.2L58.7 19l.7-12.7c-5.6-3.2-12-5-19-5.1zm0 0"/><path fill="#81E2C4" d="M58.7 7.5V19h-6.6c-3.6-2.1-7.7-3.2-12.1-3.2S31.5 17 27.9 19h-7.3V6.3C26.3 3.1 32.9 1.2 40 1.2h.4c6.8.1 13.1 2.4 18.3 6.3zm0 0"/><path fill="#EDEDED" d="M59.4 6.4l-.7 1.2 11.7 20.3 3.2-7.3c-3.4-5.9-8.3-10.8-14.2-14.2zm0 0"/><path fill="#FFF" d="M19 52.1L6.4 59.4c3.4 5.9 8.3 10.8 14.2 14.2L27.9 61c-3.7-2.1-6.8-5.2-8.9-8.9zm0 0M27.9 19c-3.7 2.1-6.7 5.2-8.9 8.9L6.4 20.6c3.4-5.9 8.3-10.8 14.2-14.2L27.9 19zm0 0M70.4 22.4v5.5H61c-2.1-3.7-5.2-6.7-8.9-8.9l6.6-11.5c5 3.7 9 8.9 11.7 14.9zm0 0"/><path fill="#5FCEA9" d="M73.6 20.6l-3.2 1.8v35.2l3.2 1.8c3.3-5.7 5.2-12.3 5.2-19.4 0-7.1-1.9-13.7-5.2-19.4zm0 0"/><path fill="#81E2C4" d="M70.4 22.4c2.4 5.3 3.7 11.3 3.7 17.6 0 6.3-1.3 12.3-3.7 17.6L61 52.1c2.1-3.6 3.2-7.7 3.2-12.1 0-4.4-1.2-8.5-3.2-12.1l9.4-5.5zm0 0M45 30.6c-.4 0-.8 0-1.2.1L40 52.5l9.9-10c1.3-1.3 2-3 2-5 .1-3.8-3-6.9-6.9-6.9zm0 0"/><path fill="#9CE8CF" d="M47.3 37.6c0-3.5-1.5-6.3-3.5-6.9-1.5.3-2.8 1-3.8 2-1.3-1.3-3-2.1-5-2.1-3.9 0-7 3.1-7 7 0 1.9.8 3.7 2 5l9.9 10 6.1-10c.8-1.3 1.3-3.1 1.3-5zm0 0"/><path d="M64.8 0H15.2C6.8 0 0 6.8 0 15.2v49.5C0 73.2 6.8 80 15.2 80h49.5C73.2 80 80 73.2 80 64.8V15.2C80 6.8 73.2 0 64.8 0zM20.2 8l6.1 10.6c-3.1 2-5.7 4.6-7.7 7.7L8 20.2c3.1-5 7.2-9.1 12.2-12.2zM63 40c0 12.7-10.3 23-23 23S17 52.7 17 40s10.3-23 23-23 23 10.3 23 23zM6.8 22.2l10.6 6.1c-1.8 3.5-2.8 7.5-2.8 11.7 0 4.2 1 8.2 2.8 11.7L6.8 57.8C4 52.5 2.3 46.4 2.3 40S4 27.5 6.8 22.2zm11.8 31.5c2 3.1 4.6 5.7 7.7 7.7L20.2 72c-4.9-3.1-9.1-7.2-12.2-12.2l10.6-6.1zm9.7 8.8c3.5 1.8 7.5 2.8 11.7 2.8s8.2-1 11.7-2.8l6.1 10.6C52.5 76 46.4 77.7 40 77.7S27.5 76 22.2 73.2l6.1-10.7zM59.8 72l-6.1-10.6c3.1-2 5.7-4.6 7.7-7.7L72 59.8c-3.1 5-7.2 9.1-12.2 12.2zm13.4-14.2l-10.6-6.1c1.8-3.5 2.8-7.5 2.8-11.7 0-4.2-1-8.2-2.8-11.7l10.6-6.1c2.9 5.3 4.5 11.4 4.5 17.8S76 52.5 73.2 57.8zM61.4 26.3c-2-3.1-4.6-5.7-7.7-7.7L59.8 8c4.9 3.1 9.1 7.2 12.2 12.2l-10.6 6.1zm-9.7-8.8c-3.5-1.8-7.5-2.8-11.7-2.8s-8.2 1-11.7 2.8L22.2 6.8C27.5 4 33.6 2.3 40 2.3S52.5 4 57.8 6.8l-6.1 10.7zM2.3 15.2c0-7.1 5.8-12.9 12.9-12.9h11.2C21 4.3 16 7.5 11.7 11.7 7.5 16 4.3 21 2.3 26.4V15.2zm12.9 62.5c-7.1 0-12.9-5.8-12.9-12.9V53.6c2 5.5 5.1 10.5 9.4 14.7 4.2 4.2 9.3 7.4 14.7 9.4H15.2zm62.5-12.9c0 7.1-5.8 12.9-12.9 12.9H53.6c5.5-2 10.5-5.1 14.7-9.4 4.2-4.2 7.4-9.3 9.4-14.7v11.2zm-9.4-53.1C64 7.5 59 4.3 53.6 2.3h11.2c7.1 0 12.9 5.8 12.9 12.9v11.2c-2-5.4-5.2-10.4-9.4-14.7zm0 0"/><path d="M39.2 53.3c.2.2.5.3.8.3.3 0 .6-.1.8-.3l9.9-10c1.5-1.5 2.4-3.6 2.4-5.8 0-4.5-3.7-8.2-8.2-8.2-1.8 0-3.6.6-5 1.7-1.4-1.1-3.2-1.7-5-1.7-4.5 0-8.2 3.7-8.2 8.2 0 2.2.8 4.2 2.4 5.8l10.1 10zM35 31.8c1.6 0 3 .6 4.2 1.7.2.2.5.4.8.4.3 0 .6-.1.8-.4 1.1-1.1 2.6-1.7 4.2-1.7 3.2 0 5.8 2.6 5.8 5.8 0 1.6-.6 3-1.7 4.1L40 50.8l-9.1-9.1c-1.1-1.1-1.7-2.6-1.7-4.1 0-3.2 2.6-5.8 5.8-5.8zm0 0"/><path d="M27.2 23.7c-.5.4-.6 1.1-.2 1.6.4.5 1.1.6 1.6.2 3.3-2.6 7.2-3.9 11.3-3.9 10.1 0 18.4 8.2 18.4 18.4 0 10.1-8.2 18.4-18.4 18.4S21.6 50.1 21.6 40c0-4.2 1.4-8.1 3.9-11.3.4-.5.3-1.2-.2-1.6-.5-.4-1.2-.3-1.6.2-2.9 3.7-4.4 8.1-4.4 12.8 0 11.4 9.3 20.7 20.7 20.7S60.7 51.4 60.7 40 51.4 19.3 40 19.3c-4.7 0-9.1 1.5-12.8 4.4zm0 0"/></svg>